Coordinates
version=1
nRows=4
nColumns=65
inDegrees=yes

Units are S.I. units (second, meters, Newtons, ...)
If the header above contains a line with 'inDegrees', this indicates whether rotational values are in degrees (yes) or radians (no).

endheader
time	pelvis_tilt	pelvis_list	pelvis_rot	pelvis_tx	pelvis_ty	pelvis_tz	hip_flex_r	hip_add_r	hip_rot_r	pf_flex_r	pf_rot_r	pf_tilt_r	pf_tx_r	pf_ty_r	pf_tz_r	knee_flex_r	knee_add_r	knee_rot_r	knee_tx_r	knee_ty_r	knee_tz_r	meniscus_lateral_flex_r	meniscus_lateral_add_r	meniscus_lateral_rot_r	meniscus_lateral_tx_r	meniscus_lateral_ty_r	meniscus_lateral_tz_r	meniscus_medial_flex_r	meniscus_medial_add_r	meniscus_medial_rot_r	meniscus_medial_tx_r	meniscus_medial_ty_r	meniscus_medial_tz_r	ankle_flex_r	subt_angle_r	mtp_angle_r	hip_flex_l	hip_add_l	hip_rot_l	pf_l_r3	pf_l_tx	pf_l_ty	knee_flex_l	ankle_flex_l	subt_angle_l	mtp_angle_l	lumbar_ext	lumbar_latbend	lumbar_rot	neck_ext	neck_latbend	neck_rot	arm_add_r	arm_flex_r	arm_rot_r	elbow_flex_r	pro_sup_r	wrist_flex_r	arm_add_l	arm_flex_l	arm_rot_l	elbow_flex_l	pro_sup_l	wrist_flex_l
      0.00000000	     -0.71921941	      0.38188839	     -6.48670240	     -1.64632337	      0.91089770	     -0.24354700	     21.62625881	     -5.29753839	     -8.50625546	     47.67297663	      3.05842450	     -0.77159609	      0.02954897	     -0.02704367	      0.00588799	     57.01037753	      3.32567928	     -3.88849349	      0.00276037	     -0.00206689	     -0.00175484	      0.72408440	     -0.69918471	      3.08174958	     -0.00231789	     -0.00083930	     -0.00154669	      1.65649392	     -1.49266538	      2.01270250	      0.00038537	      0.00031543	      0.00044568	     -4.26110033	    -11.62728613	      0.00000000	      1.23926565	     -2.38318699	     -5.14980647	      0.06513700	      0.04435000	     -0.41871200	      0.05875283	      0.03199541	     -0.00731360	      0.00000000	    -15.17171345	     -2.89567811	     -2.01258535	      0.00000000	      0.00000000	      0.00000000	    -12.92080807	     20.62726763	      5.22768569	      8.19093834	     60.81106046	      0.00000000	    -15.30283392	     24.29628200	      3.48386396	      7.75762837	     60.16032001	      0.00000000
      0.00500000	     -0.91081294	      0.56155568	     -6.94824981	     -1.64058762	      0.91108957	     -0.24259659	     22.74999343	     -5.21190564	     -8.26441405	     46.99237225	      3.06181721	     -0.73879476	      0.03008387	     -0.02684197	      0.00587699	     56.16157207	      3.31303033	     -3.82356353	      0.00273080	     -0.00190878	     -0.00173033	      0.77444565	     -0.69358236	      3.13675058	     -0.00228586	     -0.00082734	     -0.00153567	      1.71402510	     -1.44490342	      1.89458802	      0.00046191	      0.00030663	      0.00045014	     -4.02477364	    -11.49712325	      0.00000000	      0.97480051	     -2.65383548	     -5.39757165	      0.06513700	      0.04435000	     -0.41871200	      0.06435725	      0.03275717	     -0.00865579	      0.00000000	    -14.62134671	     -2.48875893	     -1.81135494	      0.00000000	      0.00000000	      0.00000000	    -12.56088625	     20.50421598	      5.52704609	      8.37558175	     60.82613730	      0.00000000	    -16.01552908	     24.69034447	      3.59295801	      7.91634204	     60.16392996	      0.00000000
      0.01000000	     -1.73758437	      0.75321924	     -6.25565499	     -1.63456906	      0.91092053	     -0.24228096	     23.97651731	     -4.82609370	     -7.66920505	     45.72827505	      3.05897462	     -0.68297932	      0.03108506	     -0.02643364	      0.00585237	     54.57012405	      3.29219699	     -3.68961775	      0.00266975	     -0.00161789	     -0.00169120	      0.86387511	     -0.68179314	      3.23633516	     -0.00222801	     -0.00080403	     -0.00151749	      1.82781604	     -1.35349099	      1.68192501	      0.00061059	      0.00028833	      0.00046070	     -3.59128810	    -11.28706456	      0.00000000	      1.30417831	     -2.70227853	     -5.23560569	      0.06513700	      0.04435000	     -0.41871200	      0.04998999	      0.03659320	     -0.01193724	      0.00000000	    -14.01635802	     -2.67761249	     -1.94800513	      0.00000000	      0.00000000	      0.00000000	    -12.21614827	     20.27174732	      6.02719310	      8.63793795	     60.84974353	      0.00000000	    -16.97859781	     25.61897206	      3.80516846	      8.30060655	     60.17222083	      0.00000000
      0.01500000	     -2.31181283	      0.67430062	     -6.33352341	     -1.62835321	      0.91083116	     -0.24111553	     25.04910482	     -4.23459439	     -7.21469590	     44.45857779	      3.04321425	     -0.63360592	      0.03208862	     -0.02598579	      0.00582218	     52.96839693	      3.27458385	     -3.53962300	      0.00260059	     -0.00133524	     -0.00165418	      0.94743805	     -0.66750600	      3.33238999	     -0.00217258	     -0.00077891	     -0.00150206	      1.95061814	     -1.26153020	      1.48325683	      0.00076872	      0.00026809	      0.00047203	     -2.97466704	    -11.06206764	      0.00000000	      1.29293306	     -2.48848418	     -5.29870649	      0.06513700	      0.04435000	     -0.41871200	      0.04650719	      0.03998085	     -0.01459377	      0.00000000	    -12.77446512	     -2.86392134	     -2.18916741	      0.00000000	      0.00000000	      0.00000000	    -11.90714058	     19.66249736	      6.86811809	      9.00158790	     60.88592177	      0.00000000	    -18.11846997	     26.81289439	      4.18506941	      8.91740011	     60.18534065	      0.00000000
